<svg width="20" height="17" viewBox="0 0 20 17" fill="none" xmlns="http://www.w3.org/2000/svg">
<path d="M7.75417 11.6958C7.75417 12.5667 7.3 13.9917 6.225 13.9917C5.15 13.9917 4.69583 12.5667 4.69583 11.6958C4.69583 10.825 5.15 9.39999 6.225 9.39999C7.3 9.39999 7.75417 10.825 7.75417 11.6958ZM20 9.59166C20 10.9208 19.8667 12.3292 19.2708 13.55C17.6917 16.7417 13.35 16.6667 10.2417 16.6667C7.08333 16.6667 2.48333 16.7792 0.841667 13.55C0.233333 12.3417 0 10.9208 0 9.59166C0 7.84582 0.579167 6.19582 1.72917 4.85832C1.5125 4.19999 1.40833 3.50832 1.40833 2.82499C1.40833 1.92916 1.6125 1.47916 2.01667 0.666656C3.90417 0.666656 5.1125 1.04166 6.55 2.16666C7.75833 1.87916 9 1.74999 10.2458 1.74999C11.3708 1.74999 12.5042 1.87082 13.5958 2.13332C15.0125 1.02082 16.2208 0.666656 18.0875 0.666656C18.4958 1.47916 18.6958 1.92916 18.6958 2.82499C18.6958 3.50832 18.5875 4.18749 18.375 4.83332C19.5208 6.18332 20 7.84582 20 9.59166ZM17.3208 11.6958C17.3208 9.86666 16.2083 8.25416 14.2583 8.25416C13.4708 8.25416 12.7167 8.39582 11.925 8.50416C11.3042 8.59999 10.6833 8.63749 10.0458 8.63749C9.4125 8.63749 8.79167 8.59999 8.16667 8.50416C7.3875 8.39582 6.625 8.25416 5.83333 8.25416C3.88333 8.25416 2.77083 9.86666 2.77083 11.6958C2.77083 15.3542 6.12083 15.9167 9.0375 15.9167H11.0458C13.975 15.9167 17.3208 15.3583 17.3208 11.6958ZM13.8792 9.39999C12.8042 9.39999 12.35 10.825 12.35 11.6958C12.35 12.5667 12.8042 13.9917 13.8792 13.9917C14.9542 13.9917 15.4083 12.5667 15.4083 11.6958C15.4083 10.825 14.9542 9.39999 13.8792 9.39999Z" fill="#ECECEC"/>
</svg>
