<svg width="20" height="20" viewBox="0 0 20 20" fill="none" xmlns="http://www.w3.org/2000/svg">
<path d="M11.25 1.25C11.25 1.94141 11.8086 2.5 12.5 2.5H13.75C14.4414 2.5 15 3.05859 15 3.75C15 4.44141 14.4414 5 13.75 5H1.25C0.558594 5 0 5.55859 0 6.25C0 6.94141 0.558594 7.5 1.25 7.5H13.75C15.8203 7.5 17.5 5.82031 17.5 3.75C17.5 1.67969 15.8203 0 13.75 0H12.5C11.8086 0 11.25 0.558594 11.25 1.25ZM13.75 15C13.75 15.6914 14.3086 16.25 15 16.25H16.25C18.3203 16.25 20 14.5703 20 12.5C20 10.4297 18.3203 8.75 16.25 8.75H1.25C0.558594 8.75 0 9.30859 0 10C0 10.6914 0.558594 11.25 1.25 11.25H16.25C16.9414 11.25 17.5 11.8086 17.5 12.5C17.5 13.1914 16.9414 13.75 16.25 13.75H15C14.3086 13.75 13.75 14.3086 13.75 15ZM5 20H6.25C8.32031 20 10 18.3203 10 16.25C10 14.1797 8.32031 12.5 6.25 12.5H1.25C0.558594 12.5 0 13.0586 0 13.75C0 14.4414 0.558594 15 1.25 15H6.25C6.94141 15 7.5 15.5586 7.5 16.25C7.5 16.9414 6.94141 17.5 6.25 17.5H5C4.30859 17.5 3.75 18.0586 3.75 18.75C3.75 19.4414 4.30859 20 5 20Z" fill="#8DB3D6"/>
</svg>
