<svg width="65" height="65" viewBox="0 0 65 65" fill="none" xmlns="http://www.w3.org/2000/svg">
<circle cx="32.5" cy="32.5" r="32.5" fill="#D9D9D9"/>
<path d="M33 32.1429C35.2733 32.1429 37.4535 31.2398 39.0609 29.6323C40.6684 28.0249 41.5714 25.8447 41.5714 23.5714C41.5714 21.2981 40.6684 19.118 39.0609 17.5105C37.4535 15.9031 35.2733 15 33 15C30.7267 15 28.5465 15.9031 26.9391 17.5105C25.3316 19.118 24.4286 21.2981 24.4286 23.5714C24.4286 25.8447 25.3316 28.0249 26.9391 29.6323C28.5465 31.2398 30.7267 32.1429 33 32.1429ZM29.9397 35.3571C23.3438 35.3571 18 40.7009 18 47.2969C18 48.3951 18.8906 49.2857 19.9888 49.2857H46.0112C47.1094 49.2857 48 48.3951 48 47.2969C48 40.7009 42.6562 35.3571 36.0603 35.3571H29.9397Z" fill="#B1ACAC"/>
</svg>
