<svg width="22" height="21" viewBox="0 0 22 21" fill="none" xmlns="http://www.w3.org/2000/svg">
<path d="M15.1211 0.0483213C15.3164 0.130353 15.457 0.306134 15.4961 0.513165L16.2734 4.72801L20.4883 5.50145C20.6953 5.54051 20.8711 5.68113 20.9531 5.87645C21.0352 6.07176 21.0117 6.29441 20.8906 6.4702L18.457 10.0014L20.8906 13.5288C21.0117 13.7046 21.0352 13.9272 20.9531 14.1225C20.8711 14.3179 20.6953 14.4585 20.4883 14.4975L16.2734 15.2749L15.4961 19.4897C15.457 19.6968 15.3164 19.8725 15.1211 19.9546C14.9258 20.0366 14.7031 20.0132 14.5274 19.8921L11 17.4585L7.47267 19.8921C7.29689 20.0132 7.07423 20.0366 6.87892 19.9546C6.68361 19.8725 6.54298 19.6968 6.50392 19.4897L5.72657 15.2749L1.51173 14.4975C1.3047 14.4585 1.12892 14.3179 1.04689 14.1225C0.964856 13.9272 0.988293 13.7046 1.10939 13.5288L3.54298 10.0014L1.10939 6.4741C0.988293 6.29832 0.964856 6.07566 1.04689 5.88035C1.12892 5.68504 1.3047 5.54441 1.51173 5.50535L5.72657 4.72801L6.50392 0.513165C6.54298 0.306134 6.68361 0.130353 6.87892 0.0483213C7.07423 -0.03371 7.29689 -0.0102725 7.47267 0.110821L11 2.54441L14.5274 0.110821C14.7031 -0.0102725 14.9258 -0.03371 15.1211 0.0483213ZM7.25001 10.0014C7.25001 9.00688 7.6451 8.05306 8.34836 7.3498C9.05162 6.64653 10.0055 6.25145 11 6.25145C11.9946 6.25145 12.9484 6.64653 13.6517 7.3498C14.3549 8.05306 14.75 9.00688 14.75 10.0014C14.75 10.996 14.3549 11.9498 13.6517 12.6531C12.9484 13.3564 11.9946 13.7514 11 13.7514C10.0055 13.7514 9.05162 13.3564 8.34836 12.6531C7.6451 11.9498 7.25001 10.996 7.25001 10.0014ZM16 10.0014C16 8.67536 15.4732 7.40359 14.5355 6.46591C13.5979 5.52823 12.3261 5.00145 11 5.00145C9.67393 5.00145 8.40216 5.52823 7.46448 6.46591C6.5268 7.40359 6.00001 8.67536 6.00001 10.0014C6.00001 11.3275 6.5268 12.5993 7.46448 13.537C8.40216 14.4747 9.67393 15.0014 11 15.0014C12.3261 15.0014 13.5979 14.4747 14.5355 13.537C15.4732 12.5993 16 11.3275 16 10.0014Z" fill="#DBB632"/>
</svg>
