<svg width="21" height="19" viewBox="0 0 21 19" fill="none" xmlns="http://www.w3.org/2000/svg">
<path d="M8.76389 2.80859L9.70139 4.68359C9.79861 4.87891 9.98611 5.00391 10.184 5.00391H12.0347C12.2361 5.00391 12.4201 4.88281 12.5174 4.68359L13.4549 2.80859C13.5486 2.61719 13.5486 2.38672 13.4549 2.19531L12.5174 0.320312C12.4201 0.125 12.2326 0 12.0347 0H10.1875C9.98611 0 9.80208 0.121094 9.70486 0.320312L8.76736 2.19531C8.67361 2.38672 8.67361 2.61719 8.76736 2.80859H8.76389ZM2.37153 2.15234C1.49653 1.16797 0 1.86719 0 3.25781V15.6289C0 17.3555 1.24306 18.7539 2.77778 18.7539H13.7743C15.0104 18.7539 15.6319 17.0703 14.7569 16.0859L2.37153 2.15234ZM17.5069 14.5195C17.6771 14.625 17.8819 14.625 18.0521 14.5195L19.7188 13.4648C19.8924 13.3555 20.0035 13.1445 20.0035 12.9219V10.8398C20.0035 10.6133 19.8958 10.4062 19.7188 10.2969L18.0521 9.24219C17.8819 9.13672 17.6771 9.13672 17.5069 9.24219L15.8403 10.2969C15.6667 10.4062 15.5556 10.6172 15.5556 10.8398V12.9219C15.5556 13.1484 15.6632 13.3555 15.8403 13.4648L17.5069 14.5195ZM6.66667 1.25391C6.66667 0.922386 6.5496 0.604443 6.34123 0.370023C6.13286 0.135602 5.85024 0.00390626 5.55556 0.00390626C5.26087 0.00390626 4.97826 0.135602 4.76988 0.370023C4.56151 0.604443 4.44444 0.922386 4.44444 1.25391C4.44444 1.58543 4.56151 1.90337 4.76988 2.13779C4.97826 2.37221 5.26087 2.50391 5.55556 2.50391C5.85024 2.50391 6.13286 2.37221 6.34123 2.13779C6.5496 1.90337 6.66667 1.58543 6.66667 1.25391ZM13.3333 10.0039C13.628 10.0039 13.9106 9.87221 14.119 9.63779C14.3274 9.40337 14.4444 9.08543 14.4444 8.75391C14.4444 8.42239 14.3274 8.10444 14.119 7.87002C13.9106 7.6356 13.628 7.50391 13.3333 7.50391C13.0386 7.50391 12.756 7.6356 12.5477 7.87002C12.3393 8.10444 12.2222 8.42239 12.2222 8.75391C12.2222 9.08543 12.3393 9.40337 12.5477 9.63779C12.756 9.87221 13.0386 10.0039 13.3333 10.0039Z" fill="#7C4424"/>
</svg>
